<svg xmlns="http://www.w3.org/2000/svg" width="50" height="50" fill="none"><circle cx="25" cy="25" r="25" fill="#F5FBFC"/><path stroke="#08546C" stroke-linecap="round" stroke-linejoin="round" stroke-width="3" d="M25.5 24.134c2.071 0 3.75-1.373 3.75-3.067 0-1.694-1.679-3.067-3.75-3.067-2.071 0-3.75 1.373-3.75 3.067 0 1.694 1.679 3.067 3.75 3.067ZM25.5 38.447V24.134M16.75 28.223H13c0 2.712 1.317 5.312 3.661 7.23 2.344 1.917 5.524 2.994 8.839 2.994 3.315 0 6.495-1.077 8.839-2.995C36.683 33.535 38 30.935 38 28.223h-3.75"/></svg>