<svg xmlns="http://www.w3.org/2000/svg" width="77" height="37" fill="none"><path fill="#fff" d="m19.467 7.953 6.022 10.429H13.446l6.021-10.43ZM9.734 20.468l6.021 10.429H3.713l6.021-10.43ZM34.994 7.05l-6.11 10.378-5.932-10.48 12.042.103ZM34.997 30.558l-12.042.143 5.897-10.5 6.145 10.357ZM13.24 19.518l12.043.061-6.074 10.399-5.969-10.46ZM3.507 7.004l12.042.06-6.074 10.399-5.968-10.46ZM50.896 29V7.182h8.608c1.655 0 3.065.316 4.23.948 1.164.625 2.052 1.495 2.663 2.61.618 1.108.927 2.386.927 3.835 0 1.45-.313 2.727-.938 3.835s-1.53 1.971-2.716 2.59c-1.18.617-2.607.926-4.283.926h-5.486V18.23h4.74c.888 0 1.62-.152 2.195-.458.582-.312 1.016-.742 1.3-1.289.29-.554.436-1.19.436-1.907 0-.724-.145-1.356-.436-1.896a2.917 2.917 0 0 0-1.3-1.268c-.582-.305-1.321-.458-2.216-.458h-3.11V29h-4.614Zm20.966.277a2.489 2.489 0 0 1-1.81-.746 2.489 2.489 0 0 1-.747-1.81c0-.697.249-1.294.746-1.79a2.489 2.489 0 0 1 1.811-.746c.682 0 1.279.248 1.79.745.511.497.767 1.094.767 1.79 0 .469-.12.899-.362 1.29a2.755 2.755 0 0 1-.927.926 2.44 2.44 0 0 1-1.268.34Z"/></svg>